# xmcd
#
# Track frame offsets:
#	150
#	12420
#	23590
#	35297
#	45155
#	56885
#	68377
#	80960
#	91907
#	102922
#	114540
#	126725
#	137130
#	149322
#	158927
#	171337
#	181915
#	194855
#	205302
#	216082
#	227742
#	239670
#	251110
#	262840
#	275105
#	286272
#	299052
#
# Disc length: 4140 seconds
#
# Revision: 1
# Processed by: cddbd v1.4PL0 Copyright (c) Steve Scherf et al.
# Submitted via: audiograbber 1.80
#
DISCID=a6102a1b
DTITLE=jean shepard - the melody ranch girl disc 1
DYEAR=1900
DGENRE=
TTITLE0=twice the lovin' (in half the time) 1952
TTITLE1=crying steel guitar waltz 1952
TTITLE2=keep it a secret 1996
TTITLE3=nobody else can love you like i do 1996
TTITLE4=i'd rather die young (then grow old without you) 1953
TTITLE5=a dear john letter (& ferling husky) 1953
TTITLE6=my wedding ring 1953
TTITLE7=with all these memories 1996
TTITLE8=forgive me, john (& ferlin husky) 1953
TTITLE9=why did you wait 1996
TTITLE10=why did you wait 1954
TTITLE11=you'll come crawlin' 1954
TTITLE12=the mysteries of life 1956
TTITLE13=let's kiss and try again (& ferlin husky) 1954
TTITLE14=the glass that stands beside you 1954
TTITLE15=two whoops and a holler 1954
TTITLE16=don't fall in love with a married man 1954
TTITLE17=what'll you have (& ferlin husky) 1996
TTITLE18=it tickles (& simon crum) 1996
TTITLE19=please don't divorce me 1954
TTITLE20=did you tell her about me 1955
TTITLE21=don't rush me 1954
TTITLE22=you sent her an orchid (you sent me a rose) 1955
TTITLE23=take possession 1955
TTITLE24=a satisfied mind 1955
TTITLE25=beautiful lies 1955
TTITLE26=i thought of you 1955
EXTD=
EXTT0=
EXTT1=
EXTT2=
EXTT3=
EXTT4=
EXTT5=
EXTT6=
EXTT7=
EXTT8=
EXTT9=
EXTT10=
EXTT11=
EXTT12=
EXTT13=
EXTT14=
EXTT15=
EXTT16=
EXTT17=
EXTT18=
EXTT19=
EXTT20=
EXTT21=
EXTT22=
EXTT23=
EXTT24=
EXTT25=
EXTT26=
PLAYORDER=
